<mxfile host="app.diagrams.net" modified="2023-07-25T13:17:14.455Z" agent="Mozilla/5.0 (Windows NT 10.0; Win64; x64) AppleWebKit/537.36 (KHTML, like Gecko) Chrome/114.0.0.0 Safari/537.36" etag="qT_O2e4Tr9L0NgAJl82Y" version="21.6.5" type="device">
  <diagram name="Página-1" id="57hUWI0VvKNIp6Ko-otC">
    <mxGraphModel dx="1234" dy="625" grid="1" gridSize="10" guides="1" tooltips="1" connect="1" arrows="1" fold="1" page="1" pageScale="1" pageWidth="827" pageHeight="1169" math="0" shadow="0">
      <root>
        <mxCell id="0" />
        <mxCell id="1" parent="0" />
        <mxCell id="qwwt_TusGc7swNWHIwxe-1" value="Empresa" style="rounded=0;whiteSpace=wrap;html=1;" parent="1" vertex="1">
          <mxGeometry x="620" y="390" width="120" height="60" as="geometry" />
        </mxCell>
        <mxCell id="qwwt_TusGc7swNWHIwxe-20" style="edgeStyle=orthogonalEdgeStyle;rounded=0;orthogonalLoop=1;jettySize=auto;html=1;endArrow=none;endFill=0;" parent="1" source="qwwt_TusGc7swNWHIwxe-2" target="qwwt_TusGc7swNWHIwxe-19" edge="1">
          <mxGeometry relative="1" as="geometry" />
        </mxCell>
        <mxCell id="qwwt_TusGc7swNWHIwxe-22" style="edgeStyle=orthogonalEdgeStyle;rounded=0;orthogonalLoop=1;jettySize=auto;html=1;entryX=0.5;entryY=0;entryDx=0;entryDy=0;endArrow=none;endFill=0;" parent="1" source="qwwt_TusGc7swNWHIwxe-2" edge="1">
          <mxGeometry relative="1" as="geometry">
            <mxPoint x="305" y="280" as="targetPoint" />
          </mxGeometry>
        </mxCell>
        <mxCell id="qwwt_TusGc7swNWHIwxe-2" value="Veículo" style="rounded=0;whiteSpace=wrap;html=1;" parent="1" vertex="1">
          <mxGeometry x="350" y="200" width="120" height="60" as="geometry" />
        </mxCell>
        <mxCell id="qwwt_TusGc7swNWHIwxe-16" style="edgeStyle=orthogonalEdgeStyle;rounded=0;orthogonalLoop=1;jettySize=auto;html=1;entryX=1;entryY=0;entryDx=0;entryDy=0;endArrow=none;endFill=0;" parent="1" source="qwwt_TusGc7swNWHIwxe-5" target="qwwt_TusGc7swNWHIwxe-2" edge="1">
          <mxGeometry relative="1" as="geometry">
            <Array as="points">
              <mxPoint x="550" y="200" />
            </Array>
          </mxGeometry>
        </mxCell>
        <mxCell id="qwwt_TusGc7swNWHIwxe-5" value="Placa" style="ellipse;whiteSpace=wrap;html=1;" parent="1" vertex="1">
          <mxGeometry x="690" y="140" width="120" height="80" as="geometry" />
        </mxCell>
        <mxCell id="qwwt_TusGc7swNWHIwxe-10" value="Cliente" style="rounded=0;whiteSpace=wrap;html=1;" parent="1" vertex="1">
          <mxGeometry x="245" y="590" width="120" height="60" as="geometry" />
        </mxCell>
        <mxCell id="qwwt_TusGc7swNWHIwxe-15" style="edgeStyle=orthogonalEdgeStyle;rounded=0;orthogonalLoop=1;jettySize=auto;html=1;entryX=0;entryY=0.5;entryDx=0;entryDy=0;endArrow=none;endFill=0;" parent="1" source="qwwt_TusGc7swNWHIwxe-12" target="qwwt_TusGc7swNWHIwxe-10" edge="1">
          <mxGeometry relative="1" as="geometry" />
        </mxCell>
        <mxCell id="qwwt_TusGc7swNWHIwxe-12" value="CPF" style="ellipse;whiteSpace=wrap;html=1;" parent="1" vertex="1">
          <mxGeometry x="50" y="580" width="120" height="80" as="geometry" />
        </mxCell>
        <mxCell id="qwwt_TusGc7swNWHIwxe-14" style="edgeStyle=orthogonalEdgeStyle;rounded=0;orthogonalLoop=1;jettySize=auto;html=1;entryX=0.5;entryY=1;entryDx=0;entryDy=0;endArrow=none;endFill=0;" parent="1" source="qwwt_TusGc7swNWHIwxe-13" target="qwwt_TusGc7swNWHIwxe-10" edge="1">
          <mxGeometry relative="1" as="geometry" />
        </mxCell>
        <mxCell id="qwwt_TusGc7swNWHIwxe-13" value="Nome" style="ellipse;whiteSpace=wrap;html=1;" parent="1" vertex="1">
          <mxGeometry x="245" y="690" width="120" height="80" as="geometry" />
        </mxCell>
        <mxCell id="qwwt_TusGc7swNWHIwxe-23" style="edgeStyle=orthogonalEdgeStyle;rounded=0;orthogonalLoop=1;jettySize=auto;html=1;entryX=0.5;entryY=0;entryDx=0;entryDy=0;endArrow=none;endFill=0;exitX=0.5;exitY=1;exitDx=0;exitDy=0;" parent="1" source="5SqZvGsa_P-93AIfoiMz-16" target="qwwt_TusGc7swNWHIwxe-10" edge="1">
          <mxGeometry relative="1" as="geometry">
            <mxPoint x="305" y="560" as="sourcePoint" />
          </mxGeometry>
        </mxCell>
        <mxCell id="qwwt_TusGc7swNWHIwxe-21" style="edgeStyle=orthogonalEdgeStyle;rounded=0;orthogonalLoop=1;jettySize=auto;html=1;entryX=0.5;entryY=0;entryDx=0;entryDy=0;endArrow=none;endFill=0;" parent="1" source="qwwt_TusGc7swNWHIwxe-19" target="qwwt_TusGc7swNWHIwxe-1" edge="1">
          <mxGeometry relative="1" as="geometry" />
        </mxCell>
        <mxCell id="qwwt_TusGc7swNWHIwxe-19" value="Possui" style="rhombus;whiteSpace=wrap;html=1;" parent="1" vertex="1">
          <mxGeometry x="640" y="280" width="80" height="80" as="geometry" />
        </mxCell>
        <mxCell id="qwwt_TusGc7swNWHIwxe-24" value="1" style="text;html=1;align=center;verticalAlign=middle;resizable=0;points=[];autosize=1;strokeColor=none;fillColor=none;" parent="1" vertex="1">
          <mxGeometry x="685" y="360" width="30" height="30" as="geometry" />
        </mxCell>
        <mxCell id="qwwt_TusGc7swNWHIwxe-25" value="N" style="text;html=1;align=center;verticalAlign=middle;resizable=0;points=[];autosize=1;strokeColor=none;fillColor=none;" parent="1" vertex="1">
          <mxGeometry x="465" y="208" width="30" height="30" as="geometry" />
        </mxCell>
        <mxCell id="qwwt_TusGc7swNWHIwxe-26" value="1" style="text;html=1;align=center;verticalAlign=middle;resizable=0;points=[];autosize=1;strokeColor=none;fillColor=none;" parent="1" vertex="1">
          <mxGeometry x="325" y="228" width="30" height="30" as="geometry" />
        </mxCell>
        <mxCell id="qwwt_TusGc7swNWHIwxe-27" value="1" style="text;html=1;align=center;verticalAlign=middle;resizable=0;points=[];autosize=1;strokeColor=none;fillColor=none;" parent="1" vertex="1">
          <mxGeometry x="310" y="560" width="30" height="30" as="geometry" />
        </mxCell>
        <mxCell id="5SqZvGsa_P-93AIfoiMz-3" value="Marca" style="rounded=0;whiteSpace=wrap;html=1;" vertex="1" parent="1">
          <mxGeometry x="200" width="120" height="60" as="geometry" />
        </mxCell>
        <mxCell id="5SqZvGsa_P-93AIfoiMz-12" style="edgeStyle=orthogonalEdgeStyle;rounded=0;orthogonalLoop=1;jettySize=auto;html=1;endArrow=none;endFill=0;" edge="1" parent="1" source="5SqZvGsa_P-93AIfoiMz-4" target="5SqZvGsa_P-93AIfoiMz-8">
          <mxGeometry relative="1" as="geometry" />
        </mxCell>
        <mxCell id="5SqZvGsa_P-93AIfoiMz-4" value="Modelo" style="rounded=0;whiteSpace=wrap;html=1;" vertex="1" parent="1">
          <mxGeometry x="495" width="120" height="60" as="geometry" />
        </mxCell>
        <mxCell id="5SqZvGsa_P-93AIfoiMz-19" value="" style="edgeStyle=orthogonalEdgeStyle;rounded=0;orthogonalLoop=1;jettySize=auto;html=1;endArrow=none;endFill=0;" edge="1" parent="1" source="5SqZvGsa_P-93AIfoiMz-5" target="5SqZvGsa_P-93AIfoiMz-15">
          <mxGeometry relative="1" as="geometry" />
        </mxCell>
        <mxCell id="5SqZvGsa_P-93AIfoiMz-5" value="Aluguel" style="rounded=0;whiteSpace=wrap;html=1;" vertex="1" parent="1">
          <mxGeometry x="245" y="380" width="120" height="60" as="geometry" />
        </mxCell>
        <mxCell id="5SqZvGsa_P-93AIfoiMz-9" value="" style="edgeStyle=orthogonalEdgeStyle;rounded=0;orthogonalLoop=1;jettySize=auto;html=1;endArrow=none;endFill=0;" edge="1" parent="1" source="5SqZvGsa_P-93AIfoiMz-6" target="5SqZvGsa_P-93AIfoiMz-3">
          <mxGeometry relative="1" as="geometry" />
        </mxCell>
        <mxCell id="5SqZvGsa_P-93AIfoiMz-10" style="edgeStyle=orthogonalEdgeStyle;rounded=0;orthogonalLoop=1;jettySize=auto;html=1;entryX=0.25;entryY=0;entryDx=0;entryDy=0;endArrow=none;endFill=0;" edge="1" parent="1" source="5SqZvGsa_P-93AIfoiMz-6" target="qwwt_TusGc7swNWHIwxe-2">
          <mxGeometry relative="1" as="geometry" />
        </mxCell>
        <mxCell id="5SqZvGsa_P-93AIfoiMz-6" value="Possui" style="rhombus;whiteSpace=wrap;html=1;" vertex="1" parent="1">
          <mxGeometry x="220" y="90" width="80" height="80" as="geometry" />
        </mxCell>
        <mxCell id="5SqZvGsa_P-93AIfoiMz-11" style="edgeStyle=orthogonalEdgeStyle;rounded=0;orthogonalLoop=1;jettySize=auto;html=1;entryX=0.642;entryY=-0.003;entryDx=0;entryDy=0;entryPerimeter=0;endArrow=none;endFill=0;" edge="1" parent="1" source="5SqZvGsa_P-93AIfoiMz-8" target="qwwt_TusGc7swNWHIwxe-2">
          <mxGeometry relative="1" as="geometry" />
        </mxCell>
        <mxCell id="5SqZvGsa_P-93AIfoiMz-8" value="Possui" style="rhombus;whiteSpace=wrap;html=1;" vertex="1" parent="1">
          <mxGeometry x="515" y="90" width="80" height="80" as="geometry" />
        </mxCell>
        <mxCell id="5SqZvGsa_P-93AIfoiMz-15" value="Possui" style="rhombus;whiteSpace=wrap;html=1;" vertex="1" parent="1">
          <mxGeometry x="265" y="280" width="80" height="80" as="geometry" />
        </mxCell>
        <mxCell id="5SqZvGsa_P-93AIfoiMz-18" value="" style="edgeStyle=orthogonalEdgeStyle;rounded=0;orthogonalLoop=1;jettySize=auto;html=1;endArrow=none;endFill=0;" edge="1" parent="1" source="5SqZvGsa_P-93AIfoiMz-16" target="5SqZvGsa_P-93AIfoiMz-5">
          <mxGeometry relative="1" as="geometry" />
        </mxCell>
        <mxCell id="5SqZvGsa_P-93AIfoiMz-16" value="Possui" style="rhombus;whiteSpace=wrap;html=1;" vertex="1" parent="1">
          <mxGeometry x="265" y="480" width="80" height="80" as="geometry" />
        </mxCell>
        <mxCell id="5SqZvGsa_P-93AIfoiMz-20" value="N" style="text;html=1;align=center;verticalAlign=middle;resizable=0;points=[];autosize=1;strokeColor=none;fillColor=none;" vertex="1" parent="1">
          <mxGeometry x="345" y="168" width="30" height="30" as="geometry" />
        </mxCell>
        <mxCell id="5SqZvGsa_P-93AIfoiMz-21" value="1" style="text;html=1;align=center;verticalAlign=middle;resizable=0;points=[];autosize=1;strokeColor=none;fillColor=none;" vertex="1" parent="1">
          <mxGeometry x="265" y="58" width="30" height="30" as="geometry" />
        </mxCell>
        <mxCell id="5SqZvGsa_P-93AIfoiMz-22" value="N" style="text;html=1;align=center;verticalAlign=middle;resizable=0;points=[];autosize=1;strokeColor=none;fillColor=none;" vertex="1" parent="1">
          <mxGeometry x="305" y="358" width="30" height="30" as="geometry" />
        </mxCell>
        <mxCell id="5SqZvGsa_P-93AIfoiMz-23" value="N" style="text;html=1;align=center;verticalAlign=middle;resizable=0;points=[];autosize=1;strokeColor=none;fillColor=none;" vertex="1" parent="1">
          <mxGeometry x="305" y="438" width="30" height="30" as="geometry" />
        </mxCell>
        <mxCell id="5SqZvGsa_P-93AIfoiMz-24" value="1" style="text;html=1;align=center;verticalAlign=middle;resizable=0;points=[];autosize=1;strokeColor=none;fillColor=none;" vertex="1" parent="1">
          <mxGeometry x="525" y="58" width="30" height="30" as="geometry" />
        </mxCell>
        <mxCell id="5SqZvGsa_P-93AIfoiMz-25" value="N" style="text;html=1;align=center;verticalAlign=middle;resizable=0;points=[];autosize=1;strokeColor=none;fillColor=none;" vertex="1" parent="1">
          <mxGeometry x="425" y="168" width="30" height="30" as="geometry" />
        </mxCell>
      </root>
    </mxGraphModel>
  </diagram>
</mxfile>
